<svg width="1328" height="285" viewBox="0 0 1328 285" fill="none" xmlns="http://www.w3.org/2000/svg">
<rect width="1328" height="285" fill="white"/>
<path d="M152.632 176H139.672L119.512 156.8H90.04V147.296H128.632C131.32 147.296 133.752 146.656 135.928 145.376C138.104 144.032 139.832 142.272 141.112 140.096C142.392 137.856 143.032 135.424 143.032 132.8C143.032 130.112 142.392 127.68 141.112 125.504C139.832 123.328 138.104 121.6 135.928 120.32C133.752 119.04 131.32 118.4 128.632 118.4H84.664V176H75.064V108.8H128.632C133.048 108.8 137.08 109.888 140.728 112.064C144.376 114.176 147.256 117.056 149.368 120.704C151.544 124.352 152.632 128.384 152.632 132.8C152.632 136.768 151.736 140.448 149.944 143.84C148.216 147.232 145.816 150.048 142.744 152.288C139.736 154.464 136.312 155.872 132.472 156.512L152.632 176ZM234.381 176H164.877V108.8H234.381V118.4H174.477V166.4H234.381V176ZM226.221 147.2H179.277V137.6H226.221V147.2ZM315.852 118.4H255.852V176H246.252V108.8H315.852V118.4ZM307.596 147.2H260.652V137.6H307.596V147.2ZM395.068 176H325.564V108.8H395.068V118.4H335.164V166.4H395.068V176ZM386.908 147.2H339.964V137.6H386.908V147.2ZM484.507 176H471.547L451.387 156.8H421.915V147.296H460.507C463.195 147.296 465.627 146.656 467.803 145.376C469.979 144.032 471.707 142.272 472.987 140.096C474.267 137.856 474.907 135.424 474.907 132.8C474.907 130.112 474.267 127.68 472.987 125.504C471.707 123.328 469.979 121.6 467.803 120.32C465.627 119.04 463.195 118.4 460.507 118.4H416.539V176H406.939V108.8H460.507C464.923 108.8 468.955 109.888 472.603 112.064C476.251 114.176 479.131 117.056 481.243 120.704C483.419 124.352 484.507 128.384 484.507 132.8C484.507 136.768 483.611 140.448 481.819 143.84C480.091 147.232 477.691 150.048 474.619 152.288C471.611 154.464 468.187 155.872 464.347 156.512L484.507 176ZM574.32 176H561.36L541.2 156.8H511.728V147.296H550.32C553.008 147.296 555.44 146.656 557.616 145.376C559.792 144.032 561.52 142.272 562.8 140.096C564.08 137.856 564.72 135.424 564.72 132.8C564.72 130.112 564.08 127.68 562.8 125.504C561.52 123.328 559.792 121.6 557.616 120.32C555.44 119.04 553.008 118.4 550.32 118.4H506.352V176H496.752V108.8H550.32C554.736 108.8 558.768 109.888 562.416 112.064C566.064 114.176 568.944 117.056 571.056 120.704C573.232 124.352 574.32 128.384 574.32 132.8C574.32 136.768 573.424 140.448 571.632 143.84C569.904 147.232 567.504 150.048 564.432 152.288C561.424 154.464 558 155.872 554.16 156.512L574.32 176ZM662.98 176H653.38V156.8H599.716V147.2H653.38V118.4H618.916C614.564 118.4 610.564 119.488 606.916 121.664C603.268 123.776 600.356 126.656 598.18 130.304C596.068 133.952 595.012 137.984 595.012 142.4V176H585.412V142.4C585.412 137.792 586.276 133.472 588.004 129.44C589.732 125.344 592.132 121.76 595.204 118.688C598.276 115.552 601.828 113.12 605.86 111.392C609.956 109.664 614.308 108.8 618.916 108.8H662.98V176ZM743.319 176H679.095V108.8H688.695V166.4H743.319V176Z" fill="#0EB0F9"/>
<path d="M828.73 176H819.13V156.8H765.466V147.2H819.13V118.4H784.666C780.314 118.4 776.314 119.488 772.666 121.664C769.018 123.776 766.106 126.656 763.93 130.304C761.818 133.952 760.762 137.984 760.762 142.4V176H751.162V142.4C751.162 137.792 752.026 133.472 753.754 129.44C755.482 125.344 757.882 121.76 760.954 118.688C764.026 115.552 767.578 113.12 771.61 111.392C775.706 109.664 780.058 108.8 784.666 108.8H828.73V176ZM919.821 108.8L884.493 176H873.549L838.221 108.8H849.165L879.021 165.632L908.877 108.8H919.821ZM998.818 176H929.314V108.8H998.818V118.4H938.914V166.4H998.818V176ZM990.658 147.2H943.714V137.6H990.658V147.2ZM1020.29 176H1010.69V108.8H1015.49C1020.16 108.8 1025.22 109.696 1030.66 111.488C1036.16 113.28 1041.67 115.808 1047.17 119.072C1052.67 122.336 1057.86 126.24 1062.72 130.784C1067.65 135.264 1071.87 140.256 1075.39 145.76V108.8H1084.99V176H1075.39C1075.39 170.112 1074.18 164.48 1071.75 159.104C1069.38 153.664 1066.21 148.672 1062.24 144.128C1058.27 139.52 1053.86 135.456 1048.99 131.936C1044.19 128.352 1039.3 125.44 1034.31 123.2C1029.31 120.896 1024.64 119.424 1020.29 118.784V176ZM1173.16 108.8L1173.06 142.4C1173.06 147.072 1172.2 151.456 1170.47 155.552C1168.74 159.584 1166.34 163.136 1163.27 166.208C1160.2 169.28 1156.61 171.68 1152.52 173.408C1148.49 175.136 1144.17 176 1139.56 176H1132.45C1127.85 176 1123.49 175.136 1119.4 173.408C1115.37 171.68 1111.81 169.28 1108.74 166.208C1105.67 163.072 1103.27 159.488 1101.54 155.456C1099.81 151.36 1098.95 147.008 1098.95 142.4V108.8H1108.55V142.4C1108.55 146.816 1109.61 150.848 1111.72 154.496C1113.89 158.08 1116.81 160.96 1120.45 163.136C1124.1 165.312 1128.1 166.4 1132.45 166.4H1139.56C1143.97 166.4 1147.97 165.312 1151.56 163.136C1155.21 160.96 1158.09 158.08 1160.2 154.496C1162.37 150.848 1163.46 146.816 1163.46 142.4V108.8H1173.16ZM1256.44 176H1186.94V108.8H1256.44V118.4H1196.54V166.4H1256.44V176ZM1248.28 147.2H1201.34V137.6H1248.28V147.2Z" fill="#05C093"/>
</svg>
